<svg width="23" height="23" viewBox="0 0 23 23" fill="none" xmlns="http://www.w3.org/2000/svg">
<path d="M21.2106 5.11969H18.3995V2.47774C18.3995 2.15924 18.2649 1.8538 18.0253 1.62859C17.7856 1.40338 17.4606 1.27686 17.1217 1.27686H1.7884C1.44951 1.27686 1.1245 1.40338 0.884872 1.62859C0.645242 1.8538 0.51062 2.15924 0.51062 2.47774V18.3294C0.51062 19.2849 0.914488 20.2013 1.63338 20.8769C2.35226 21.5525 3.32729 21.932 4.34396 21.932H19.6773C20.4229 21.932 21.1379 21.6537 21.665 21.1583C22.1922 20.6628 22.4884 19.9908 22.4884 19.2901V6.32057C22.4884 6.00207 22.3538 5.69662 22.1141 5.47142C21.8745 5.24621 21.5495 5.11969 21.2106 5.11969ZM10.4773 17.6089H4.34396C4.14062 17.6089 3.94562 17.533 3.80184 17.3978C3.65806 17.2627 3.57729 17.0795 3.57729 16.8883C3.57729 16.6972 3.65806 16.514 3.80184 16.3788C3.94562 16.2437 4.14062 16.1678 4.34396 16.1678H10.4773C10.6806 16.1678 10.8756 16.2437 11.0194 16.3788C11.1632 16.514 11.2439 16.6972 11.2439 16.8883C11.2439 17.0795 11.1632 17.2627 11.0194 17.3978C10.8756 17.533 10.6806 17.6089 10.4773 17.6089ZM14.5661 14.7267H4.34396C4.14062 14.7267 3.94562 14.6509 3.80184 14.5157C3.65806 14.3806 3.57729 14.1974 3.57729 14.0062C3.57729 13.8151 3.65806 13.6319 3.80184 13.4967C3.94562 13.3616 4.14062 13.2857 4.34396 13.2857H14.5661C14.7695 13.2857 14.9645 13.3616 15.1083 13.4967C15.2521 13.6319 15.3328 13.8151 15.3328 14.0062C15.3328 14.1974 15.2521 14.3806 15.1083 14.5157C14.9645 14.6509 14.7695 14.7267 14.5661 14.7267ZM15.3328 10.6438C15.3302 10.8341 15.2485 11.0159 15.1053 11.1505C14.9621 11.2851 14.7687 11.3618 14.5661 11.3643H4.34396C4.14144 11.3618 3.94797 11.2851 3.80477 11.1505C3.66155 11.0159 3.57993 10.8341 3.57729 10.6438V5.84022C3.57993 5.64989 3.66155 5.46806 3.80477 5.33348C3.94797 5.19888 4.14144 5.12217 4.34396 5.11969H14.5661C14.7687 5.12217 14.9621 5.19888 15.1053 5.33348C15.2485 5.46806 15.3302 5.64989 15.3328 5.84022V10.6438ZM20.9551 19.2901C20.9551 19.6086 20.8205 19.914 20.5808 20.1393C20.3412 20.3644 20.0161 20.491 19.6773 20.491C19.3384 20.491 19.0134 20.3644 18.7738 20.1393C18.5341 19.914 18.3995 19.6086 18.3995 19.2901V6.56075H20.9551V19.2901Z" fill="url(#paint0_linear_11_1961)"/>
<path d="M5.1106 6.56055H13.7994V9.92305H5.1106V6.56055Z" fill="url(#paint1_linear_11_1961)"/>
<defs>
<linearGradient id="paint0_linear_11_1961" x1="0.944327" y1="1.68879" x2="21.2678" y2="22.5302" gradientUnits="userSpaceOnUse">
<stop/>
<stop offset="0.5"/>
<stop offset="1"/>
</linearGradient>
<linearGradient id="paint1_linear_11_1961" x1="5.28206" y1="6.62761" x2="7.57078" y2="12.3276" gradientUnits="userSpaceOnUse">
<stop/>
<stop offset="0.5"/>
<stop offset="1"/>
</linearGradient>
</defs>
</svg>
