<svg width="24" height="22" viewBox="0 0 24 22" fill="none" xmlns="http://www.w3.org/2000/svg">
<g clip-path="url(#clip0_11_1958)">
<path d="M21.8906 6.0808H20.4178C19.1651 3.1064 16.4067 0.94485 13.2312 0.532022C10.0843 0.11249 6.9923 1.32374 4.96945 3.76199C4.3748 4.47885 3.90309 5.25819 3.55772 6.0808H2.10938C0.946219 6.0808 0 7.02702 0 8.19018V11.0027C0 12.1658 0.946219 13.1121 2.10938 13.1121H4.99692L4.69481 12.1899C3.8152 9.50371 4.3103 6.75918 6.05231 4.66012C7.76414 2.59672 10.3782 1.57569 13.0485 1.9259C15.8726 2.29377 18.324 4.29098 19.2952 7.0153L19.3011 7.0311C19.4577 7.44721 19.5675 7.87499 19.6307 8.31515C19.8415 9.63008 19.7213 10.9628 19.284 12.1693L19.2809 12.1777C18.1952 15.2601 15.2752 17.3308 12.0137 17.3308C10.843 17.3308 9.89062 18.277 9.89062 19.4402C9.89062 20.6033 10.8368 21.5496 12 21.5496C13.1632 21.5496 14.1094 20.6033 14.1094 19.4402V18.4919C16.9169 17.8246 19.2751 15.8344 20.4086 13.112H21.8906C23.0538 13.112 24 12.1658 24 11.0026V8.19013C24 7.02698 23.0538 6.0808 21.8906 6.0808Z" fill="url(#paint0_linear_11_1958)"/>
<path d="M5.67188 14.5186V15.9248H12C15.4895 15.9248 18.3281 13.0862 18.3281 9.59668C18.3281 6.10716 15.4895 3.26855 12 3.26855C8.51048 3.26855 5.67188 6.10716 5.67188 9.59668C5.67188 11.0194 6.14977 12.3941 7.02319 13.5058C6.85359 14.0983 6.31252 14.5186 5.67188 14.5186ZM14.1094 8.89355H15.5156V10.2998H14.1094V8.89355ZM11.2969 8.89355H12.7031V10.2998H11.2969V8.89355ZM8.48437 8.89355H9.89062V10.2998H8.48437V8.89355Z" fill="url(#paint1_linear_11_1958)"/>
</g>
<defs>
<linearGradient id="paint0_linear_11_1958" x1="0.473611" y1="0.870985" x2="21.1532" y2="23.5415" gradientUnits="userSpaceOnUse">
<stop/>
<stop offset="0.5"/>
<stop offset="1"/>
</linearGradient>
<linearGradient id="paint1_linear_11_1958" x1="5.92162" y1="3.52096" x2="18.3701" y2="15.5185" gradientUnits="userSpaceOnUse">
<stop/>
<stop offset="0.5"/>
<stop offset="1"/>
</linearGradient>
<clipPath id="clip0_11_1958">
<rect width="24" height="22" fill="white"/>
</clipPath>
</defs>
</svg>
