<svg width="28" height="28" viewBox="0 0 28 28" fill="none" xmlns="http://www.w3.org/2000/svg">
<g clip-path="url(#clip0_11_1945)">
<mask id="mask0_11_1945" style="mask-type:luminance" maskUnits="userSpaceOnUse" x="0" y="0" width="28" height="28">
<path d="M28 0H0V28H28V0Z" fill="white"/>
</mask>
<g mask="url(#mask0_11_1945)">
<path d="M28.0004 18.9491C28.0004 15.4746 26.0071 12.3736 23.0217 10.8652C22.929 17.5272 17.5277 22.9285 10.8657 23.0213C12.374 26.0066 15.475 27.9999 18.9496 27.9999C20.5787 27.9999 22.1629 27.5661 23.5549 26.7417L27.9609 27.9604L26.7422 23.5544C27.5665 22.1624 28.0004 20.5783 28.0004 18.9491Z" fill="url(#paint0_linear_11_1945)"/>
<path d="M21.3828 10.6915C21.3828 4.79605 16.5868 0 10.6915 0C4.79605 0 0 4.79605 0 10.6915C0 12.6128 0.511414 14.4834 1.48255 16.1257L0.0393067 21.3433L5.25705 19.9003C6.89938 20.8714 8.77012 21.3828 10.6915 21.3828C16.5868 21.3828 21.3828 16.5868 21.3828 10.6915ZM9.05083 8.20312H7.41016C7.41016 6.39374 8.88204 4.92188 10.6915 4.92188C12.5008 4.92188 13.9727 6.39374 13.9727 8.20312C13.9727 9.12152 13.5838 10.0042 12.9056 10.6245L11.5118 11.9003V13.1797H9.87114V11.1779L11.798 9.41412C12.1424 9.09904 12.3321 8.66904 12.3321 8.20312C12.3321 7.29844 11.5961 6.5625 10.6915 6.5625C9.7867 6.5625 9.05083 7.29844 9.05083 8.20312ZM9.87114 14.8203H11.5118V16.4609H9.87114V14.8203Z" fill="url(#paint1_linear_11_1945)"/>
</g>
</g>
<defs>
<linearGradient id="paint0_linear_11_1945" x1="11.2038" y1="11.2069" x2="28.0572" y2="27.4498" gradientUnits="userSpaceOnUse">
<stop/>
<stop offset="0.5"/>
<stop offset="1"/>
</linearGradient>
<linearGradient id="paint1_linear_11_1945" x1="0.421963" y1="0.426444" x2="21.4537" y2="20.6963" gradientUnits="userSpaceOnUse">
<stop/>
<stop offset="0.5"/>
<stop offset="1"/>
</linearGradient>
<clipPath id="clip0_11_1945">
<rect width="28" height="28" fill="white"/>
</clipPath>
</defs>
</svg>
