<svg width="20" height="20" viewBox="0 0 20 20" fill="none" xmlns="http://www.w3.org/2000/svg">
<path d="M20 7.03113V17.4915C19.9994 18.0486 19.7651 18.5828 19.3485 18.9768C18.9319 19.3708 18.367 19.5923 17.7778 19.5928H14.0741C13.6812 19.5928 13.3043 19.4453 13.0265 19.1825C12.7487 18.9198 12.5926 18.5634 12.5926 18.1919V14.3395C12.5926 14.1538 12.5146 13.9756 12.3756 13.8442C12.2367 13.7129 12.0483 13.6391 11.8519 13.6391H8.14815C7.95169 13.6391 7.76328 13.7129 7.62437 13.8442C7.48545 13.9756 7.40741 14.1538 7.40741 14.3395V18.1919C7.40741 18.5634 7.25132 18.9198 6.97349 19.1825C6.69566 19.4453 6.31884 19.5928 5.92593 19.5928H2.22222C1.63303 19.5923 1.06814 19.3708 0.651524 18.9768C0.234904 18.5828 0.000588307 18.0486 0 17.4915V7.03113C0.00055429 6.78922 0.0670316 6.55154 0.193018 6.341C0.319004 6.13047 0.500247 5.95419 0.719259 5.82917L9.23778 0.996131C9.46807 0.86543 9.7316 0.796387 10.0002 0.796387C10.2688 0.796387 10.5323 0.86543 10.7626 0.996131L19.2811 5.82917C19.5001 5.95423 19.6812 6.13053 19.8071 6.34106C19.9331 6.5516 19.9995 6.78926 20 7.03113Z" fill="url(#paint0_linear_11_1941)"/>
<defs>
<linearGradient id="paint0_linear_11_1941" x1="0.394676" y1="1.17125" x2="18.8892" y2="20.1372" gradientUnits="userSpaceOnUse">
<stop/>
<stop offset="0.5"/>
<stop offset="1"/>
</linearGradient>
</defs>
</svg>
